<svg width="183" height="38" fill="none" xmlns="http://www.w3.org/2000/svg"><mask id="a" mask-type="alpha" maskUnits="userSpaceOnUse" x="0" y="0" width="38" height="38"><path d="M19 38c10.493 0 19-8.507 19-19S29.493 0 19 0 0 8.507 0 19s8.507 19 19 19z" fill="#C4C4C4"/></mask><g mask="url(#a)"><path d="M38 0H0v38h38V0z" fill="url(#b)"/><path fill-rule="evenodd" clip-rule="evenodd" d="M27.438 13.678c-2.311.017-4.54.796-6.808 1.108-.948.13-1.924.162-2.872.04-1.262-.16-2.483-.587-3.743-.779-1.127-.17-2.267-.35-3.401-.356-1.98-.013-3.897.656-5.839 1.017 0 .612-.115 1.399.175 1.83.3.444.805.85.936 1.452.31 1.427.752 2.826 1.316 4.167.274.652.792 1.107 1.37 1.42 1.39.753 3.038.864 4.564.627 2.174-.337 3.353-2.096 4.253-4.106.336-.817.374-1.76.817-2.506.264-.444.876-.257 1.313-.259.437-.001.807.783.943 1.305.48 1.847 1.281 3.807 2.872 4.775 2.376 1.445 6.12 1.175 7.66-1.432.604-1.02.77-2.258 1.074-3.413.184-.703.349-1.541 1.004-1.928.264-.156.079-.779.118-1.14.042-.395.124-.743-.396-.82-.907-.136-1.787-.547-2.716-.686-.88-.132-1.742-.322-2.64-.316zm-15.283.657a8.473 8.473 0 0 1 1.947.192c3.8.867 3.877 2.556 2.313 6.047-1.275 2.845-3.916 3.557-6.577 2.876-1.227-.315-2.065-1.238-2.461-2.503-.418-1.334-.733-2.752-.662-4.155.096-1.879 2.066-2.143 3.477-2.314a17.355 17.355 0 0 1 1.963-.143zm13.876 0c.656.004 1.315.065 1.963.143 1.41.171 3.38.435 3.476 2.314.072 1.403-.244 2.82-.662 4.155-.395 1.265-1.234 2.188-2.46 2.503-2.662.681-5.302-.031-6.577-2.876-1.565-3.491-1.488-5.18 2.312-6.047a8.472 8.472 0 0 1 1.948-.192z" fill="#000"/><path d="M27.438 13.678v.074h.075v-.074h-.075zm-6.808 1.108-.01-.074.01.074zm-2.872.04-.01.075.01-.074zm-3.743-.779-.011.074.01-.074zm-3.401-.356v-.075.075zm-5.839 1.017-.013-.073-.061.011v.062h.074zm.175 1.83-.061.041.061-.042zm.936 1.452.072-.016-.072.016zm1.316 4.167-.068.03.068-.03zm1.37 1.42-.036.065.035-.065zm4.564.627-.011-.073.011.073zm4.253-4.106.067.03.001-.002-.068-.028zm.817-2.506.064.038-.064-.038zm1.313-.259v.075-.075zm.943 1.305-.072.018.072-.018zm2.872 4.775.039-.064-.039.064zm7.66-1.432.065.038-.064-.038zm1.074-3.413-.072-.019.072.019zm1.004-1.928-.038-.064.038.064zm.118-1.14.074.008-.074-.008zm-.396-.82-.01.073.01-.074zm-2.716-.686-.01.074.01-.074zm-2.64-.316v-.074h-.074v.074h.074zm-15.283.657v-.075h-.006l.006.075zm1.947.192-.016.073.016-.072zm2.313 6.047.068.03-.068-.03zM9.838 23.45l.018-.072-.018.072zm-2.461-2.503-.07.023.07-.023zm-.662-4.155-.074-.004.074.004zm3.477-2.314.009.074-.01-.074zm1.963-.143v.074h.006l-.006-.074zm13.876 0h-.074v.073h.073v-.073zm1.963.143-.01.074.01-.074zm3.476 2.314-.074.004.074-.004zm-.662 4.155.071.023-.07-.023zm-2.46 2.503-.019-.072.018.072zm-6.577-2.876-.068.03.068-.03zm2.312-6.047-.016-.072.016.072zm1.948-.192h.074v-.074h-.073l-.001.074zm1.407-.73c-1.164.008-2.305.208-3.435.444-1.133.236-2.253.508-3.384.663l.02.148c1.139-.157 2.268-.43 3.394-.666 1.129-.236 2.258-.433 3.406-.442l-.001-.148zm-6.819 1.107c-.942.13-1.911.161-2.852.041l-.019.148c.957.122 1.94.09 2.892-.041l-.02-.148zm-2.852.041c-.626-.08-1.243-.226-1.864-.376-.62-.151-1.243-.307-1.877-.403l-.022.147c.626.095 1.243.249 1.864.4.62.15 1.245.298 1.88.38l.02-.148zm-3.741-.779c-1.125-.17-2.271-.35-3.412-.358v.149c1.127.007 2.262.185 3.39.356l.022-.147zm-3.412-.358c-.998-.006-1.979.16-2.95.37-.974.213-1.932.469-2.902.649l.027.146c.971-.18 1.943-.44 2.907-.65.967-.21 1.935-.372 2.918-.366v-.149zm-5.913 1.092c0 .151-.007.314-.013.48a8.433 8.433 0 0 0-.008.505c.007.329.05.652.209.886l.123-.083c-.133-.196-.177-.481-.184-.807-.004-.16.002-.328.008-.495.006-.165.013-.331.013-.486h-.148zm.188 1.871c.077.114.167.226.258.336.093.11.186.22.276.335.177.229.328.47.39.756l.145-.032c-.069-.317-.236-.58-.418-.815-.091-.118-.188-.23-.279-.34a4.083 4.083 0 0 1-.25-.323l-.122.083zm.924 1.427a23.932 23.932 0 0 0 1.32 4.18l.137-.057a23.78 23.78 0 0 1-1.312-4.155l-.145.032zm1.32 4.18c.283.672.816 1.138 1.403 1.456l.07-.13c-.567-.308-1.07-.752-1.336-1.383l-.136.057zm1.403 1.456c1.41.764 3.075.874 4.611.636l-.022-.147c-1.517.235-3.146.124-4.518-.62l-.071.13zm4.611.636c2.215-.344 3.408-2.137 4.31-4.15l-.136-.06c-.899 2.007-2.064 3.732-4.196 4.063l.022.147zm4.31-4.152c.171-.415.267-.862.373-1.29.106-.43.225-.843.44-1.206l-.127-.076c-.228.383-.35.815-.458 1.247-.107.434-.2.867-.365 1.269l.137.056zm.813-2.496c.113-.19.3-.25.53-.259.115-.004.237.005.36.015.121.01.246.022.36.022l-.002-.149c-.105 0-.22-.01-.345-.021a3.185 3.185 0 0 0-.378-.015c-.251.009-.502.077-.652.33l.127.077zm1.25-.222a.42.42 0 0 1 .264.112c.09.075.177.182.257.309.16.253.283.572.35.827l.143-.037c-.07-.267-.198-.6-.368-.87a1.449 1.449 0 0 0-.287-.343.565.565 0 0 0-.36-.147v.149zm.87 1.248c.48 1.85 1.287 3.836 2.905 4.82l.078-.127c-1.565-.951-2.36-2.884-2.84-4.73l-.143.038zm2.905 4.82c1.204.732 2.752 1.029 4.193.814 1.443-.215 2.786-.945 3.57-2.271l-.127-.076c-.757 1.28-2.056 1.99-3.465 2.2-1.409.21-2.921-.08-4.093-.794l-.078.127zm7.764-1.457c.306-.519.501-1.09.657-1.675.078-.292.146-.588.213-.882.068-.295.135-.588.21-.875l-.143-.038c-.076.29-.144.585-.211.88-.068.294-.136.588-.213.877-.154.579-.344 1.136-.64 1.637l.127.076zm1.08-3.432c.093-.355.179-.733.322-1.073.143-.338.34-.628.649-.81l-.076-.128c-.346.205-.56.527-.71.88-.148.353-.237.745-.328 1.093l.143.038zm.97-1.883a.36.36 0 0 0 .16-.24c.022-.096.025-.208.02-.32-.004-.111-.015-.232-.023-.34a1.777 1.777 0 0 1-.002-.296l-.148-.016c-.01.097-.006.21.002.322.008.114.019.227.023.336.004.108.001.204-.017.28-.018.075-.048.121-.09.146l.076.128zm.154-1.196c.01-.096.024-.196.03-.287a.843.843 0 0 0-.018-.27.408.408 0 0 0-.148-.225.685.685 0 0 0-.322-.12l-.022.147a.542.542 0 0 1 .253.09.26.26 0 0 1 .095.147.705.705 0 0 1 .014.221c-.005.088-.018.18-.029.28l.148.017zm-.458-.902c-.447-.067-.889-.201-1.34-.339-.448-.136-.905-.276-1.376-.346l-.022.147c.458.068.905.204 1.356.341.448.137.9.275 1.36.344l.022-.147zm-2.716-.685c-.873-.131-1.746-.323-2.651-.317v.149c.891-.007 1.743.182 2.63.315l.021-.147zm-2.725-.243h.149-.149zm-15.209.73c.652-.004 1.3.048 1.93.192l.034-.145a8.553 8.553 0 0 0-1.965-.195l.001.149zm1.93.192c1.897.432 2.829 1.063 3.114 1.989.144.466.129 1.017-.023 1.673-.152.655-.438 1.41-.829 2.282l.136.06c.391-.874.682-1.64.837-2.309.155-.67.176-1.25.021-1.75-.311-1.009-1.318-1.656-3.222-2.09l-.033.145zm2.262 5.944c-.63 1.405-1.595 2.28-2.728 2.721-1.134.442-2.443.45-3.763.113l-.036.143c1.341.344 2.683.338 3.853-.118 1.172-.456 2.165-1.36 2.81-2.799l-.136-.06zm-6.49 2.834c-1.198-.307-2.02-1.208-2.41-2.453l-.14.044c.4 1.284 1.256 2.23 2.513 2.552l.036-.143zm-2.41-2.453c-.416-1.331-.729-2.74-.658-4.13l-.148-.007c-.072 1.416.247 2.844.665 4.181l.142-.044zm-.658-4.13c.023-.455.16-.81.37-1.088.212-.28.5-.488.833-.645.668-.316 1.501-.424 2.209-.51l-.018-.147c-.703.085-1.56.195-2.254.523-.348.164-.659.386-.888.69-.23.304-.375.687-.4 1.17l.148.008zm3.412-2.243a17.254 17.254 0 0 1 1.954-.143v-.149c-.661.005-1.323.066-1.972.145l.018.147zm1.96-.143-.012-.148.012.148zm13.87 0a17.25 17.25 0 0 1 1.954.143l.018-.147a17.434 17.434 0 0 0-1.971-.145l-.002.149zm1.954.143c.707.086 1.54.194 2.208.51.333.157.622.365.833.645.21.278.347.633.37 1.089l.149-.008c-.025-.483-.17-.866-.4-1.17-.23-.304-.54-.526-.888-.69-.694-.329-1.551-.438-2.254-.523l-.018.147zm3.411 2.244c.071 1.39-.242 2.798-.658 4.13l.141.044c.419-1.338.738-2.766.666-4.182l-.149.008zm-.658 4.13c-.39 1.244-1.212 2.145-2.409 2.452l.037.143c1.256-.321 2.112-1.268 2.513-2.552l-.141-.044zm-2.409 2.452c-1.32.338-2.628.329-3.763-.113-1.133-.441-2.098-1.316-2.728-2.721l-.135.06c.645 1.44 1.638 2.343 2.81 2.8 1.17.455 2.511.461 3.853.117l-.037-.143zm-6.49-2.834c-.391-.872-.677-1.627-.83-2.282-.151-.656-.167-1.207-.023-1.673.286-.926 1.217-1.557 3.114-1.99l-.033-.144c-1.904.434-2.911 1.082-3.223 2.09-.155.5-.134 1.08.021 1.75.155.67.446 1.435.838 2.31l.135-.061zm2.26-5.944a8.405 8.405 0 0 1 1.931-.191l.002-.149a8.553 8.553 0 0 0-1.965.195l.033.145zm1.858-.265h.148-.148z" fill="#000"/><path opacity=".85" fill-rule="evenodd" clip-rule="evenodd" d="M10.191 14.48c1.295-.157 2.635-.242 3.91.049 3.8.867 3.877 2.555 2.313 6.046-1.275 2.845-3.914 3.558-6.576 2.876-1.226-.314-2.065-1.24-2.461-2.505-.418-1.335-.735-2.752-.664-4.155.096-1.879 2.068-2.14 3.478-2.311zM27.993 14.48c-1.295-.157-2.634-.242-3.91.049-3.8.867-3.877 2.555-2.313 6.046 1.275 2.845 3.915 3.558 6.576 2.876 1.226-.314 2.066-1.24 2.461-2.505.418-1.335.735-2.752.664-4.155-.096-1.879-2.067-2.14-3.478-2.311z" fill="#000" stroke="#000"/></g><path d="m54.627 9.98.14 1.758c1.114-1.406 2.585-2.11 4.413-2.11 1.898 0 3.24.856 4.025 2.567 1.09-1.71 2.643-2.566 4.658-2.566 3.328 0 5.034 2.303 5.115 6.908V29h-4.974V16.854c0-1.102-.152-1.887-.457-2.356-.305-.469-.82-.703-1.547-.703-.926 0-1.617.568-2.074 1.705l.035.598V29h-4.975V16.889c0-1.09-.146-1.875-.44-2.356-.292-.492-.814-.738-1.564-.738-.855 0-1.535.463-2.039 1.389V29H49.97V9.98h4.658zM84.352 29.352c-2.555 0-4.547-.762-5.977-2.286-1.43-1.523-2.144-3.703-2.144-6.539v-1.511c0-3 .656-5.315 1.968-6.944 1.313-1.629 3.194-2.443 5.643-2.443 2.39 0 4.19.768 5.396 2.303 1.207 1.523 1.823 3.785 1.846 6.785v2.443h-9.897c.07 1.406.381 2.438.932 3.094.55.644 1.4.967 2.549.967 1.664 0 3.053-.569 4.166-1.705l1.951 3.006c-.61.843-1.494 1.529-2.654 2.056-1.16.516-2.42.774-3.78.774zm-3.13-11.672h4.975v-.457c-.023-1.137-.21-1.998-.562-2.584-.352-.586-.961-.88-1.828-.88-.868 0-1.5.311-1.899.932-.386.621-.615 1.618-.685 2.989zM98.572 9.98l.14 1.758c1.114-1.406 2.585-2.11 4.413-2.11 1.898 0 3.24.856 4.025 2.567 1.09-1.71 2.643-2.566 4.659-2.566 3.328 0 5.033 2.303 5.115 6.908V29h-4.975V16.854c0-1.102-.152-1.887-.457-2.356-.304-.469-.82-.703-1.547-.703-.925 0-1.617.568-2.074 1.705l.035.598V29h-4.974V16.889c0-1.09-.147-1.875-.44-2.356-.293-.492-.814-.738-1.564-.738-.856 0-1.535.463-2.04 1.389V29h-4.974V9.98h4.658zM128.297 29.352c-2.555 0-4.547-.762-5.977-2.286-1.429-1.523-2.144-3.703-2.144-6.539v-1.511c0-3 .656-5.315 1.969-6.944 1.312-1.629 3.193-2.443 5.642-2.443 2.391 0 4.19.768 5.397 2.303 1.207 1.523 1.822 3.785 1.845 6.785v2.443h-9.896c.07 1.406.381 2.438.931 3.094.551.644 1.401.967 2.549.967 1.664 0 3.053-.569 4.166-1.705l1.951 3.006c-.609.843-1.494 1.529-2.654 2.056-1.16.516-2.42.774-3.779.774zm-3.129-11.672h4.975v-.457c-.024-1.137-.211-1.998-.563-2.584-.351-.586-.961-.88-1.828-.88-.867 0-1.5.311-1.898.932-.387.621-.616 1.618-.686 2.989zM152.678 20.105c0 3.082-.492 5.397-1.477 6.944-.984 1.535-2.531 2.303-4.64 2.303-1.653 0-2.977-.745-3.973-2.233L142.43 29h-4.588V2h4.974v9.527c.938-1.265 2.174-1.898 3.709-1.898 2.11 0 3.657.768 4.641 2.303.984 1.523 1.488 3.761 1.512 6.714v1.46zm-4.975-1.248c0-2.003-.193-3.345-.58-4.025-.387-.691-1.061-1.037-2.021-1.037-1.043 0-1.805.475-2.286 1.424v8.666c.446.89 1.219 1.336 2.321 1.336.949 0 1.605-.31 1.968-.932.375-.621.575-1.828.598-3.621v-1.81zM155.086 18.875c0-2.883.68-5.145 2.039-6.785 1.359-1.64 3.24-2.461 5.643-2.461 2.425 0 4.318.82 5.677 2.46 1.36 1.641 2.039 3.915 2.039 6.821v1.213c0 2.895-.673 5.156-2.021 6.785-1.348 1.63-3.234 2.444-5.66 2.444-2.438 0-4.336-.815-5.696-2.444-1.347-1.64-2.021-3.914-2.021-6.82v-1.213zm4.992 1.248c0 3.398.908 5.098 2.725 5.098 1.676 0 2.578-1.418 2.707-4.254l.017-2.092c0-1.734-.24-3.018-.72-3.85-.481-.843-1.161-1.265-2.039-1.265-.844 0-1.506.422-1.987 1.265-.469.832-.703 2.116-.703 3.85v1.248zM179.379 5.305V9.98h2.549v3.745h-2.549v9.44c0 .75.1 1.265.299 1.546.211.281.609.422 1.195.422.481 0 .873-.041 1.178-.123l-.035 3.867a7.751 7.751 0 0 1-2.743.475c-3.211 0-4.834-1.84-4.869-5.52V13.725h-2.197V9.98h2.197V5.305h4.975z" fill="#261F08"/><defs><linearGradient id="b" x1="0" y1="0" x2="0" y2="38" gradientUnits="userSpaceOnUse"><stop stop-color="#FFE46D"/><stop offset="1" stop-color="#FFBE00"/></linearGradient></defs></svg>